# xmcd CD database file
#
# Track frame offsets:
#	150
#	10638
#	23989
#	40303
#	51429
#	68535
#	86992
#	99370
#	117034
#	133337
#
# Disc length: 1948 seconds
#
# Revision: 0
# Processed by: cddbd v1.4PL0 Copyright (c) Steve Scherf et al.
# Submitted via: CDex 1.50beta10
#
DISCID=80079a0a
DTITLE=Sarah Vaughan - The Sarah Vaughan Collection
DYEAR=1900
DGENRE=Jazz
TTITLE0=When Your Love Has Come
TTITLE1=Misty
TTITLE2=The Nearness Of You
TTITLE3=Perdido
TTITLE4=Sophisticated Lady
TTITLE5=In A Sentimental Mood
TTITLE6=My Favorite Things
TTITLE7=When Sunny Gets Blue
TTITLE8=Round Midnight
TTITLE9=Lord's Prayer
EXTD=
EXTT0=
EXTT1=
EXTT2=
EXTT3=
EXTT4=
EXTT5=
EXTT6=
EXTT7=
EXTT8=
EXTT9=
PLAYORDER=
